<svg xmlns="http://www.w3.org/2000/svg" xml:space="preserve" fill-rule="evenodd" stroke-linejoin="round" stroke-miterlimit="2" clip-rule="evenodd" viewBox="0 0 200 200"><g transform="translate(10.39 -.199)scale(.05602)"><path fill="none" d="M-185.558 3.555h3570.37v3570.37h-3570.37z"/><clipPath id="a"><path d="M-185.558 3.555h3570.37v3570.37h-3570.37z"/></clipPath><g clip-path="url(#a)"><path fill="#ed1c24" d="M578.536 372.854h1389.467c109.964 0 217.014 12.605 319.835 36.459 627.511 145.451 1096.966 709.372 1096.966 1380.281 0 795.947-649.868 1415.021-1409.011 1415.021H-185.564c252.987-944.17 504.659-1886.499 764.1-2831.761M1657.86 2518.592c579.681-43.743 1052.677-426.562 1239.382-939.476 0 0-191.055 103.388-477.466.344-286.432-103.044-419.319-443.153-766.873-554.411-347.513-111.259-659.337 80.707-731.607 240.362-72.29 159.675-68.406 478.134 194.313 582.959 262.699 104.824 626.823 95.7 980.487 45.179 0 0-599.347 222.679-1291.886 5.483.183 50.035 5.038 188.972 49.671 295.455 55.437 132.159 204.55 252.502 393.26 296.062 131.672 28.427 269.557 38.705 410.72 28.043m843.776-1168.913c0-39.13 7.304-75.872 21.912-110.287 15.073-34.395 35.346-64.32 60.799-89.772q38.178-38.178 89.771-60.09c34.416-15.094 71.178-22.62 110.288-22.62-39.11 0-75.872-7.304-110.288-21.932-34.395-15.074-64.319-35.346-89.771-60.799-25.453-25.432-45.726-55.376-60.799-89.792q-21.912-51.593-21.912-110.287 0 58.695-22.64 110.287c-14.608 34.416-34.638 64.36-60.09 89.792-25.433 25.453-55.377 45.725-89.792 60.799-34.395 14.628-71.158 21.932-110.267 21.932 39.11 0 75.872 7.526 110.267 22.62 34.415 14.608 64.36 34.638 89.792 60.09q38.178 38.18 60.09 89.772c15.094 34.415 22.64 71.157 22.64 110.287"/></g></g></svg>